<svg width="202" height="289" viewBox="0 0 202 289" fill="none" xmlns="http://www.w3.org/2000/svg">
<rect width="202" height="289" fill="#131313"/>
<path d="M31.79 157C30.3452 157 29.0436 156.638 27.8852 155.913C26.7138 155.189 25.7701 154.215 25.0543 152.99C24.3514 151.765 24 150.395 24 148.881V136.06C24 134.585 24.3579 133.242 25.0738 132.03C25.7767 130.805 26.7203 129.831 27.9047 129.106C29.0892 128.369 30.3842 128 31.79 128C33.2608 128 34.5883 128.356 35.7728 129.067C36.9572 129.791 37.8944 130.759 38.5842 131.971C39.2871 133.182 39.6385 134.545 39.6385 136.06V137.917C39.6385 138.022 39.5734 138.075 39.4433 138.075H34.9528C34.8487 138.075 34.7966 138.022 34.7966 137.917V136.376C34.7966 135.349 34.5102 134.499 33.9376 133.828C33.3649 133.156 32.649 132.82 31.79 132.82C31.022 132.82 30.3387 133.143 29.74 133.788C29.1412 134.433 28.8419 135.191 28.8419 136.06V148.881C28.8419 149.763 29.1347 150.527 29.7204 151.172C30.3062 151.804 30.996 152.121 31.79 152.121C32.649 152.121 33.3649 151.811 33.9376 151.192C34.5102 150.56 34.7966 149.789 34.7966 148.881V146.886H32.0047C31.8615 146.886 31.79 146.82 31.79 146.688V142.164C31.79 142.032 31.8615 141.967 32.0047 141.967H39.4823C39.5864 141.967 39.6385 142.032 39.6385 142.164V148.881C39.6385 150.395 39.2871 151.765 38.5842 152.99C37.8683 154.215 36.9247 155.189 35.7533 155.913C34.5819 156.638 33.2608 157 31.79 157ZM51.0013 156.605H46.1594C46.0422 156.605 45.9772 156.539 45.9642 156.407L41.2395 128.612C41.2134 128.507 41.2524 128.454 41.3566 128.454H45.847C45.9511 128.454 46.0162 128.507 46.0422 128.612L48.5999 146.886L51.2356 128.612C51.2616 128.507 51.3397 128.454 51.4698 128.454H55.0818C55.1859 128.454 55.2509 128.507 55.277 128.612L57.8736 146.886L60.4702 128.612C60.4963 128.507 60.5614 128.454 60.6656 128.454H65.1169C65.2471 128.454 65.2991 128.507 65.2731 128.612L60.5093 156.407C60.4963 156.46 60.4573 156.506 60.3921 156.546L60.3141 156.605H55.4722C55.3941 156.605 55.329 156.539 55.277 156.407L53.227 141.888L51.1965 156.407C51.1835 156.539 51.1184 156.605 51.0013 156.605ZM66.2688 156.407L71.2279 128.612C71.2539 128.507 71.3189 128.454 71.4231 128.454H77.2216C77.3258 128.454 77.3908 128.507 77.4169 128.612L82.1806 156.407C82.1937 156.539 82.1416 156.605 82.0244 156.605H77.5926C77.4624 156.605 77.3908 156.539 77.3778 156.407L76.9483 153.444H71.5012L71.0717 156.407C71.0586 156.539 70.9936 156.605 70.8764 156.605H66.425C66.3209 156.605 66.2688 156.539 66.2688 156.407ZM74.0978 137.759L72.3017 149.118H76.1478L74.5078 137.759L74.2735 136.257L74.0978 137.759ZM89.3654 156.605H84.8359C84.7317 156.605 84.6796 156.539 84.6796 156.407L84.7577 128.652C84.7577 128.52 84.8098 128.454 84.914 128.454H89.4044C89.5085 128.454 89.5606 128.52 89.5606 128.652V138.233L95.8277 128.612C95.9318 128.507 96.0295 128.454 96.1206 128.454H100.709C100.826 128.454 100.852 128.507 100.787 128.612L93.8753 139.774L101.626 156.447C101.691 156.552 101.626 156.605 101.431 156.605H96.5501C96.4199 156.605 96.3418 156.552 96.3158 156.447L90.9077 144.554L89.5215 146.767V156.407C89.5215 156.539 89.4695 156.605 89.3654 156.605ZM108.597 156.903C107.505 156.903 106.507 156.625 105.603 156.067C104.708 155.51 103.995 154.764 103.464 153.829C102.942 152.883 102.682 151.834 102.682 150.679L102.711 141.142C102.711 140.007 102.967 138.982 103.478 138.067C103.99 137.142 104.693 136.4 105.588 135.843C106.493 135.276 107.496 134.992 108.597 134.992C109.718 134.992 110.716 135.266 111.592 135.813C112.477 136.361 113.18 137.102 113.701 138.037C114.232 138.963 114.497 139.997 114.497 141.142V142.545C114.497 142.624 114.458 142.664 114.379 142.664H110.987C110.908 142.664 110.869 142.624 110.869 142.545V141.142C110.869 140.465 110.652 139.883 110.22 139.395C109.787 138.908 109.246 138.664 108.597 138.664C107.879 138.664 107.328 138.913 106.945 139.41C106.561 139.908 106.37 140.485 106.37 141.142V150.679C106.37 151.426 106.586 152.038 107.019 152.515C107.451 152.983 107.977 153.217 108.597 153.217C109.246 153.217 109.787 152.958 110.22 152.441C110.652 151.913 110.869 151.326 110.869 150.679V149.261C110.869 149.182 110.908 149.142 110.987 149.142H114.409C114.488 149.142 114.527 149.182 114.527 149.261V150.679C114.527 151.824 114.262 152.868 113.731 153.814C113.189 154.749 112.477 155.5 111.592 156.067C110.706 156.625 109.708 156.903 108.597 156.903ZM120.295 156.605H116.872C116.774 156.605 116.725 156.555 116.725 156.456L116.754 135.455C116.754 135.375 116.794 135.336 116.872 135.336H120.265C120.344 135.336 120.383 135.375 120.383 135.455L120.412 156.456C120.412 156.555 120.373 156.605 120.295 156.605ZM126.358 156.605H123.334C123.176 156.605 123.098 156.535 123.098 156.396L123.068 135.574C123.068 135.415 123.146 135.336 123.304 135.336H126.033L131.137 147.381L130.99 135.574C130.99 135.415 131.078 135.336 131.255 135.336H134.25C134.368 135.336 134.427 135.415 134.427 135.574L134.456 156.426C134.456 156.545 134.407 156.605 134.308 156.605H131.653L126.416 145.351L126.638 156.366C126.638 156.525 126.544 156.605 126.358 156.605ZM146.965 156.605H137.2C137.121 156.605 137.082 156.555 137.082 156.456L137.111 135.455C137.111 135.375 137.151 135.336 137.229 135.336H146.935C147.015 135.336 147.054 135.385 147.054 135.485V138.903C147.054 138.982 147.015 139.022 146.935 139.022H140.74V143.799H146.935C147.015 143.799 147.054 143.838 147.054 143.918L147.083 147.381C147.083 147.46 147.044 147.5 146.965 147.5H140.74V152.844H146.965C147.044 152.844 147.083 152.893 147.083 152.993V156.485C147.083 156.565 147.044 156.605 146.965 156.605ZM153.308 156.605H149.885C149.807 156.605 149.768 156.555 149.768 156.456L149.827 135.455C149.827 135.375 149.866 135.336 149.945 135.336H153.632C153.712 135.336 153.78 135.375 153.839 135.455L156.598 139.485L159.341 135.455C159.4 135.375 159.474 135.336 159.563 135.336H163.265C163.354 135.336 163.398 135.375 163.398 135.455L163.457 156.456C163.457 156.555 163.418 156.605 163.339 156.605H159.916C159.838 156.605 159.799 156.555 159.799 156.456L159.769 140.858L156.598 145.515L153.456 140.858L153.426 156.456C153.426 156.555 153.386 156.605 153.308 156.605ZM164.977 156.456L168.724 135.455C168.743 135.375 168.792 135.336 168.871 135.336H173.252C173.331 135.336 173.379 135.375 173.399 135.455L176.999 156.456C177.008 156.555 176.969 156.605 176.88 156.605H173.532C173.434 156.605 173.379 156.555 173.37 156.456L173.045 154.217H168.93L168.605 156.456C168.596 156.555 168.546 156.605 168.458 156.605H165.095C165.016 156.605 164.977 156.555 164.977 156.456ZM170.892 142.366L169.535 150.948H172.44L171.202 142.366L171.024 141.231L170.892 142.366Z" fill="#2C2C2C"/>
</svg>
