<svg width="173" height="33" viewBox="0 0 173 33" fill="none" xmlns="http://www.w3.org/2000/svg">
<path d="M9.4082 32.4395C7.78223 32.4395 6.31738 32.0366 5.01367 31.231C3.69531 30.4253 2.6333 29.3413 1.82764 27.979C1.03662 26.6167 0.641113 25.0933 0.641113 23.4087V9.14844C0.641113 7.50781 1.04395 6.01367 1.84961 4.66602C2.64062 3.30371 3.70264 2.21973 5.03564 1.41406C6.36865 0.59375 7.82617 0.183594 9.4082 0.183594C11.0635 0.183594 12.5576 0.579102 13.8906 1.37012C15.2236 2.17578 16.2783 3.25244 17.0547 4.6001C17.8457 5.94775 18.2412 7.46387 18.2412 9.14844V11.2139C18.2412 11.3311 18.168 11.3896 18.0215 11.3896H12.9678C12.8506 11.3896 12.792 11.3311 12.792 11.2139V9.5C12.792 8.35742 12.4697 7.4126 11.8252 6.66553C11.1807 5.91846 10.375 5.54492 9.4082 5.54492C8.54395 5.54492 7.7749 5.90381 7.10107 6.62158C6.42725 7.33936 6.09033 8.18164 6.09033 9.14844V23.4087C6.09033 24.3901 6.41992 25.2397 7.0791 25.9575C7.73828 26.6606 8.51465 27.0122 9.4082 27.0122C10.375 27.0122 11.1807 26.668 11.8252 25.9795C12.4697 25.2764 12.792 24.4194 12.792 23.4087V21.1895H9.6499C9.48877 21.1895 9.4082 21.1162 9.4082 20.9697V15.938C9.4082 15.7915 9.48877 15.7183 9.6499 15.7183H18.0654C18.1826 15.7183 18.2412 15.7915 18.2412 15.938V23.4087C18.2412 25.0933 17.8457 26.6167 17.0547 27.979C16.249 29.3413 15.187 30.4253 13.8687 31.231C12.5503 32.0366 11.0635 32.4395 9.4082 32.4395ZM31.0293 32H25.5801C25.4482 32 25.375 31.9268 25.3604 31.7803L20.043 0.864746C20.0137 0.747559 20.0576 0.688965 20.1748 0.688965H25.2285C25.3457 0.688965 25.4189 0.747559 25.4482 0.864746L28.3267 21.1895L31.293 0.864746C31.3223 0.747559 31.4102 0.688965 31.5566 0.688965H35.6216C35.7388 0.688965 35.812 0.747559 35.8413 0.864746L38.7637 21.1895L41.686 0.864746C41.7153 0.747559 41.7886 0.688965 41.9058 0.688965H46.9155C47.062 0.688965 47.1206 0.747559 47.0913 0.864746L41.73 31.7803C41.7153 31.8389 41.6714 31.8901 41.5981 31.9341L41.5103 32H36.061C35.9731 32 35.8999 31.9268 35.8413 31.7803L33.5342 15.6304L31.249 31.7803C31.2344 31.9268 31.1611 32 31.0293 32ZM48.2119 31.7803L53.793 0.864746C53.8223 0.747559 53.8955 0.688965 54.0127 0.688965H60.5386C60.6558 0.688965 60.729 0.747559 60.7583 0.864746L66.1196 31.7803C66.1343 31.9268 66.0757 32 65.9438 32H60.9561C60.8096 32 60.729 31.9268 60.7144 31.7803L60.231 28.4844H54.1006L53.6172 31.7803C53.6025 31.9268 53.5293 32 53.3975 32H48.3877C48.2705 32 48.2119 31.9268 48.2119 31.7803ZM57.0229 11.0381L55.0015 23.6724H59.3301L57.4844 11.0381L57.2207 9.36816L57.0229 11.0381ZM74.2056 32H69.1079C68.9907 32 68.9321 31.9268 68.9321 31.7803L69.02 0.908691C69.02 0.762207 69.0786 0.688965 69.1958 0.688965H74.2495C74.3667 0.688965 74.4253 0.762207 74.4253 0.908691V11.5654L81.4785 0.864746C81.5957 0.747559 81.7056 0.688965 81.8081 0.688965H86.9717C87.1035 0.688965 87.1328 0.747559 87.0596 0.864746L79.2812 13.2793L88.0044 31.8242C88.0776 31.9414 88.0044 32 87.7847 32H82.2915C82.145 32 82.0571 31.9414 82.0278 31.8242L75.9414 18.5967L74.3813 21.0576V31.7803C74.3813 31.9268 74.3228 32 74.2056 32ZM95.8496 32.332C94.6211 32.332 93.4977 32.0221 92.4795 31.4023C91.4723 30.7826 90.6699 29.9525 90.0723 28.9121C89.4857 27.8607 89.1924 26.693 89.1924 25.4092L89.2256 14.8008C89.2256 13.5391 89.5133 12.3991 90.0889 11.3809C90.6644 10.3516 91.4557 9.52702 92.4629 8.90723C93.4811 8.27637 94.61 7.96094 95.8496 7.96094C97.1113 7.96094 98.2347 8.2653 99.2197 8.87402C100.216 9.48275 101.007 10.3073 101.594 11.3477C102.191 12.377 102.49 13.528 102.49 14.8008V16.3613C102.49 16.4499 102.446 16.4941 102.357 16.4941H98.5391C98.4505 16.4941 98.4062 16.4499 98.4062 16.3613V14.8008C98.4062 14.0482 98.1628 13.4007 97.6758 12.8584C97.1888 12.3161 96.5801 12.0449 95.8496 12.0449C95.0417 12.0449 94.4219 12.3216 93.9902 12.875C93.5586 13.4284 93.3428 14.0703 93.3428 14.8008V25.4092C93.3428 26.2393 93.5863 26.9199 94.0732 27.4512C94.5602 27.9714 95.1523 28.2314 95.8496 28.2314C96.5801 28.2314 97.1888 27.9437 97.6758 27.3682C98.1628 26.7816 98.4062 26.1286 98.4062 25.4092V23.832C98.4062 23.7435 98.4505 23.6992 98.5391 23.6992H102.391C102.479 23.6992 102.523 23.7435 102.523 23.832V25.4092C102.523 26.682 102.225 27.8441 101.627 28.8955C101.018 29.9359 100.216 30.7715 99.2197 31.4023C98.2236 32.0221 97.1003 32.332 95.8496 32.332ZM109.015 32H105.163C105.052 32 104.997 31.9447 104.997 31.834L105.03 8.47559C105.03 8.38704 105.075 8.34277 105.163 8.34277H108.981C109.07 8.34277 109.114 8.38704 109.114 8.47559L109.147 31.834C109.147 31.9447 109.103 32 109.015 32ZM115.838 32H112.435C112.257 32 112.169 31.9225 112.169 31.7676L112.136 8.6084C112.136 8.43132 112.224 8.34277 112.401 8.34277H115.473L121.217 21.7402L121.051 8.6084C121.051 8.43132 121.15 8.34277 121.35 8.34277H124.72C124.853 8.34277 124.919 8.43132 124.919 8.6084L124.952 31.8008C124.952 31.9336 124.897 32 124.786 32H121.798L115.904 19.4824L116.153 31.7344C116.153 31.9115 116.048 32 115.838 32ZM139.03 32H128.04C127.951 32 127.907 31.9447 127.907 31.834L127.94 8.47559C127.94 8.38704 127.985 8.34277 128.073 8.34277H138.997C139.086 8.34277 139.13 8.39811 139.13 8.50879V12.3105C139.13 12.3991 139.086 12.4434 138.997 12.4434H132.024V17.7559H138.997C139.086 17.7559 139.13 17.8001 139.13 17.8887L139.163 21.7402C139.163 21.8288 139.119 21.873 139.03 21.873H132.024V27.8164H139.03C139.119 27.8164 139.163 27.8717 139.163 27.9824V31.8672C139.163 31.9557 139.119 32 139.03 32ZM146.169 32H142.317C142.229 32 142.185 31.9447 142.185 31.834L142.251 8.47559C142.251 8.38704 142.295 8.34277 142.384 8.34277H146.534C146.623 8.34277 146.7 8.38704 146.767 8.47559L149.871 12.958L152.959 8.47559C153.025 8.38704 153.108 8.34277 153.208 8.34277H157.375C157.475 8.34277 157.524 8.38704 157.524 8.47559L157.591 31.834C157.591 31.9447 157.547 32 157.458 32H153.606C153.518 32 153.474 31.9447 153.474 31.834L153.44 14.4854L149.871 19.665L146.335 14.4854L146.302 31.834C146.302 31.9447 146.257 32 146.169 32ZM159.301 31.834L163.518 8.47559C163.54 8.38704 163.595 8.34277 163.684 8.34277H168.614C168.703 8.34277 168.758 8.38704 168.78 8.47559L172.831 31.834C172.842 31.9447 172.798 32 172.698 32H168.93C168.819 32 168.758 31.9447 168.747 31.834L168.382 29.3438H163.75L163.385 31.834C163.374 31.9447 163.318 32 163.219 32H159.434C159.345 32 159.301 31.9447 159.301 31.834ZM165.958 16.1621L164.431 25.708H167.701L166.307 16.1621L166.107 14.9004L165.958 16.1621Z" fill="#FF3838"/>
</svg>
